<svg xmlns="http://www.w3.org/2000/svg" viewBox="0 0 200 200" width="200" height="200">
  <rect width="200" height="200" fill="#ffffff"/>
  <!-- Outer Frame -->
  <rect x="10" y="10" width="180" height="180" fill="none" stroke="#10b981" stroke-width="4" rx="10"/>
  
  <!-- Corner Position Targets -->
  <rect x="25" y="25" width="40" height="40" fill="#000000"/>
  <rect x="33" y="33" width="24" height="24" fill="#ffffff"/>
  <rect x="39" y="39" width="12" height="12" fill="#000000"/>

  <rect x="135" y="25" width="40" height="40" fill="#000000"/>
  <rect x="143" y="33" width="24" height="24" fill="#ffffff"/>
  <rect x="149" y="39" width="12" height="12" fill="#000000"/>

  <rect x="25" y="135" width="40" height="40" fill="#000000"/>
  <rect x="33" y="143" width="24" height="24" fill="#ffffff"/>
  <rect x="39" y="149" width="12" height="12" fill="#000000"/>

  <!-- Internal QR Matrix Pattern -->
  <path d="M80 25h10v10H80zM100 25h10v10h-10zM115 25h10v10h-10zM80 40h25v10H80zM115 40h10v15h-10zM80 60h45v10H80zM25 80h150v10H25zM25 95h30v10H25zM70 95h20v10H70zM100 95h30v10h-30zM140 95h35v10h-35zM25 110h20v10H25zM55 110h35v10H55zM100 110h20v10h-20zM130 110h45v10h-45zM80 125h45v10H80zM80 140h15v10H80zM105 140h20v10h-20zM140 140h35v10h-35zM80 155h30v10H80zM120 155h20v10h-20zM80 170h95v10H80z" fill="#000000"/>
  
  <!-- Central Badge -->
  <rect x="75" y="75" width="50" height="50" fill="#10b981" rx="8"/>
  <text x="100" y="105" font-family="sans-serif" font-size="14" font-weight="bold" fill="#ffffff" text-anchor="middle">PIX</text>
</svg>
